<svg width="1463" height="1463" viewBox="0 0 1463 1463" fill="none"
    xmlns="http://www.w3.org/2000/svg">
    <g clip-path="url(#clip0_619_767)">
        <mask id="mask0_619_767" style="mask-type:luminance" maskUnits="userSpaceOnUse" x="0" y="0"
            width="1463" height="1463">
            <path d="M1462.9 0H0V1462.9H1462.9V0Z" fill="white" />
        </mask>
        <g mask="url(#mask0_619_767)">
            <path d="M0 0H1462.9V1462.9H0V0Z" fill="white" />
            <path
                d="M0 0V937.809C67.6627 968.818 137.491 994.727 208.971 1015.54C278.18 1035.53 348.628 1050.93 420.004 1061.54C486.223 1071.33 545.221 1075.31 596.794 1075.92C648.366 1076.53 692.305 1073.57 734.491 1068.27C776.677 1062.86 817.007 1055.01 860.018 1042.46C903.029 1029.82 948.825 1012.48 1012.57 980.038C1076.31 947.602 1158 900.375 1217.83 872.324C1277.65 844.273 1315.4 835.603 1352.64 829.177C1389.87 822.751 1426.38 818.569 1463 817.141V0H0Z"
                fill="#CA3432" />
            <path
                d="M0 1149.17V1463H1463V960.327C1442.78 954.38 1422.36 949.268 1405.86 945.825C1392.04 942.904 1378.11 940.817 1363.98 939.669C1350.88 938.522 1337.78 938 1324.68 938C1286.73 938.417 1248.87 941.443 1209.68 946.66C1170.48 951.876 1129.95 959.179 1064.86 986.202C999.779 1013.33 910.043 1060.28 835.882 1096.06C761.721 1131.85 703.032 1156.58 652.595 1173.06C602.157 1189.55 559.868 1197.68 517.682 1203.21C476.218 1208.53 434.547 1211.35 392.774 1211.66C352.238 1211.98 313.456 1210.1 275.086 1206.55C236.716 1203 198.966 1197.68 153.066 1188.19C107.167 1178.69 53.2225 1165.13 0 1149.17Z"
                fill="#CA3432" />
        </g>
    </g>
    <defs>
        <clipPath id="clip0_619_767">
            <rect width="1463" height="1463" fill="white" />
        </clipPath>
    </defs>
</svg>
