<svg width="1463" height="1463" viewBox="0 0 1463 1463" fill="none" xmlns="http://www.w3.org/2000/svg">
<g clip-path="url(#clip0_465_686)">
<path d="M0 0H1462.9V1462.9H0V0Z" fill="white"/>
<path d="M0 0V937.809C67.6627 968.818 137.491 994.727 208.971 1015.54C278.18 1035.53 348.628 1050.93 420.004 1061.54C486.223 1071.33 545.221 1075.31 596.794 1075.92C648.366 1076.53 692.305 1073.57 734.491 1068.27C776.677 1062.86 817.007 1055.01 860.018 1042.46C903.029 1029.82 948.825 1012.48 1012.57 980.038C1076.31 947.602 1158 900.375 1217.83 872.324C1277.65 844.273 1315.4 835.603 1352.64 829.177C1389.87 822.751 1426.38 818.569 1463 817.141V0H0Z" fill="#CA3432"/>
<path d="M0 1149.17V1463H1463V960.327C1442.78 954.38 1422.36 949.268 1405.86 945.825C1392.04 942.904 1378.11 940.817 1363.98 939.669C1350.88 938.522 1337.78 938 1324.68 938C1286.73 938.417 1248.87 941.443 1209.68 946.66C1170.48 951.876 1129.95 959.179 1064.86 986.202C999.779 1013.33 910.043 1060.28 835.882 1096.06C761.721 1131.85 703.032 1156.58 652.595 1173.06C602.157 1189.55 559.868 1197.68 517.682 1203.21C476.218 1208.53 434.547 1211.35 392.774 1211.66C352.238 1211.98 313.456 1210.1 275.086 1206.55C236.716 1203 198.966 1197.68 153.066 1188.19C107.167 1178.69 53.2225 1165.13 0 1149.17Z" fill="#CA3432"/>
<g clip-path="url(#clip1_465_686)">
<path d="M977.44 491.245C977.44 491.245 954.682 500.309 928.215 529.495C901.747 558.682 886.332 591.501 897.74 600.229C902.122 603.547 912.228 604.179 930.564 587.591C947.485 572.892 960.768 554.466 969.367 533.761C981.209 504.871 977.44 491.601 977.44 491.285M1122.29 543.753C1092.88 528.666 1071.39 510.183 1049.03 498.749C1027.69 487.79 1013.89 483.208 996.644 485.519C994.238 485.948 991.864 486.542 989.538 487.296C989.538 487.296 998.42 517.647 963.071 568.634C927.267 620.332 894.78 619.977 885.543 605.778C875.872 590.79 888.365 560.242 909.228 533.05C931.077 504.614 969.446 481.036 969.446 481.036C969.446 481.036 957.209 473.552 927.169 490.594C897.859 507.142 847.41 546.636 800.594 613.243C753.777 679.85 744.5 716.5 737.79 745.351C731.079 774.201 737.178 805.105 769.152 805.105C801.126 805.105 838.351 756.31 848.851 739.348C868.371 707.752 881.102 659.293 854.536 665.948C841.45 669.226 830.851 683.72 824.16 697.681C819.936 706.648 816.706 716.051 814.528 725.722C805.245 729.55 796.526 734.626 788.613 740.809C779.81 747.333 771.582 754.6 764.02 762.531C764.02 762.531 764.139 739.466 782.514 702.144C800.89 664.822 834.621 647.78 853.726 646.181C870.937 644.799 893.339 659.411 874.352 713.321C855.364 767.23 799.35 832.771 740.513 833.581C686.216 834.331 650.689 764.999 726.263 644.009C809.91 510.341 908.024 469.326 939.879 464.765C971.735 460.203 982.097 474.263 982.097 474.263C1001.27 466.392 1021.98 462.975 1042.67 464.271C1081.57 466.897 1111.65 494.444 1151.36 513.797C1141.04 523.67 1131.19 534.037 1122.31 543.753M1297.06 498.749C1270.1 516.048 1232.8 531.727 1196.96 528.37C1187.88 537.75 1178.17 548.611 1168.44 560.459C1230.59 572.761 1285.04 534.235 1314 501.435C1324.56 489.642 1333.62 476.597 1341 462.592C1327.82 476.329 1313.06 488.465 1297.05 498.749M1214.29 673.945C1214.76 673.125 1215.14 672.258 1215.43 671.358C1215.25 669.934 1214.58 668.617 1213.54 667.625C1212.5 666.633 1211.16 666.027 1209.73 665.908C1203.81 665.632 1195.73 666.757 1174.56 690.217C1156.99 709.59 1141.87 731.052 1129.53 754.118C1117.42 776.275 1112.5 792.783 1119.47 797.049C1121.73 798.222 1124.36 798.49 1126.81 797.799C1131.53 796.673 1136.88 792.25 1145.01 782.831C1148.82 778.407 1153.04 772.147 1158.09 765.216C1172.11 746.141 1207.32 686.09 1214.29 673.945ZM994.295 699.458C997.828 690.217 1002.33 672.069 992.973 664.941C982.926 657.377 957.307 675.13 957.169 693.337C956.992 711.978 975.209 720.41 979.571 721.595C982.058 722.266 982.926 722.168 984.13 720.173C987.994 713.512 991.391 706.591 994.295 699.458ZM974.913 733.364C968.565 730.431 962.642 726.652 957.307 722.128C951.958 717.639 947.488 712.195 944.123 706.074C943.768 705.481 943.412 705.936 943.018 706.469C942.623 707.002 941.044 708.443 927.386 728.467C913.728 748.49 892.747 789.979 911.734 797.049C923.892 801.571 944.123 780.264 955.156 766.144C962.673 756.289 969.486 745.916 975.545 735.102C976.117 733.897 975.545 733.621 974.933 733.364M1190.31 781.29C1185.15 789.545 1179.27 805.382 1196.23 795.528C1216.97 783.542 1246.52 738.696 1246.52 738.696H1259.92C1247.73 757.455 1234.15 775.277 1219.3 792.013C1198.28 815.315 1172.64 836.483 1154.58 834.39C1133.48 831.922 1140.09 804.217 1140.09 804.217C1140.09 804.217 1109.92 836.365 1089.03 834.055C1060.83 830.935 1069.43 796.061 1069.43 796.061C1069.43 796.061 1037.54 835.22 1015.81 834.015C981.742 832.04 990.308 790.572 999.782 761.366C1004.85 745.746 1009.55 733.483 1009.55 733.483C1009.55 733.483 1006.18 734.371 998.914 735.457C995.124 735.991 988.216 736.386 988.216 736.386C988.216 736.386 974.025 761.425 962.676 776.472C951.327 791.519 903.089 843.395 874.707 833.008C848.456 823.411 857.141 783.206 872.418 751.255C894.721 704.672 957.446 637.749 993.624 646.596C1031.12 655.699 994.473 724.162 994.473 724.162C994.473 724.162 994.473 724.419 994.868 724.597C995.618 724.873 997.572 725.09 1002.09 724.202C1006.78 723.246 1011.37 721.878 1015.81 720.114C1015.81 720.114 1053.51 641.126 1095.15 589.448C1136.8 537.769 1219.87 448.769 1252.48 470.294C1260.37 475.586 1256.82 493.813 1246.08 515.929C1241.25 517.501 1236.33 518.819 1231.36 519.879C1238.54 506.826 1243.3 495.827 1244.72 488.145C1249.64 461.447 1187.33 517.766 1142.8 578.271C1115.98 614.747 1092.15 653.333 1071.55 693.653C1079.59 688.745 1087.27 683.26 1094.52 677.243C1114.38 660.766 1133.26 643.135 1151.05 624.439C1168.18 606.892 1184.25 588.336 1199.17 568.871C1203.91 568.642 1208.63 568.154 1213.32 567.41C1197.05 589.499 1179.31 610.466 1160.23 630.166C1142.46 648.136 1123.24 667.468 1106.54 681.508C1091.63 694.198 1075.89 705.894 1059.45 716.52C1059.45 716.52 1020.51 795.094 1041.68 800.129C1054.14 803.131 1078.73 765.236 1078.73 765.236C1078.73 765.236 1110.82 716.243 1130.17 694.147C1156.56 664.131 1179.27 646.754 1201.97 646.438C1215.19 646.201 1222.99 660.261 1222.99 660.261L1229.21 650.624H1267.5C1267.5 650.624 1195.99 772.029 1190.27 781.172M1297.05 498.749C1270.08 516.048 1232.78 531.727 1196.94 528.37C1187.86 537.75 1178.15 548.611 1168.42 560.459C1230.57 572.761 1285.03 534.235 1313.98 501.435C1324.54 489.643 1333.62 476.598 1341 462.592C1327.82 476.329 1313.06 488.465 1297.05 498.749ZM759.303 558.306H722.888L702.302 591.58H738.717L759.303 558.306ZM586.878 673.531C602.372 652.283 645.123 577.817 645.123 577.817C644.943 576.394 644.28 575.077 643.245 574.085C642.21 573.093 640.867 572.486 639.439 572.366C633.518 572.09 623.649 574.084 604.05 598.63C584.451 623.176 569.233 642.705 558.141 663.025C545.983 685.201 540.674 700.841 547.66 705.086C549.928 706.223 552.532 706.49 554.983 705.837C559.523 704.691 565.464 700.13 573.615 690.75C577.444 686.366 581.786 680.462 586.878 673.531ZM391.479 572.821C381.413 565.218 355.814 583.01 355.676 601.177C355.518 619.838 378.709 625.545 381.71 625.683C382.592 625.757 383.477 625.572 384.256 625.15C384.791 624.838 385.218 624.369 385.479 623.807C388.206 618.447 390.657 612.95 392.822 607.338C396.355 598.097 400.835 579.949 391.479 572.821ZM376.301 637.058C369.361 634.888 362.727 631.835 356.564 627.974C350.592 624.079 345.735 618.696 342.472 612.354C342.117 611.762 341.722 612.216 341.367 612.749C341.011 613.282 338.959 615.849 325.261 635.952C311.563 656.054 291.273 697.168 310.28 704.237C322.399 708.838 342.867 687.354 353.979 673.294C362.294 662.245 369.978 650.733 376.992 638.815C377.446 637.611 376.992 637.334 376.321 637.117M673.722 649.439H687.065C687.065 649.439 620.215 746.2 582.457 741.697C561.378 739.229 567.635 713.202 567.635 713.202C567.635 713.202 538.029 747.878 510.831 740.848C486.159 734.51 502.087 693.455 502.087 693.455C499.284 694.581 445.895 754.79 408.375 740.355C369.117 725.189 389.506 674.775 396.966 659.609C403.302 646.833 410.309 634.392 410.309 634.392C410.309 634.392 404.289 636.09 400.44 636.959C396.591 637.828 391.026 638.934 391.026 638.934C391.026 638.934 372.453 669.127 361.104 684.194C349.755 699.261 301.517 751.038 273.095 740.73C244.674 730.422 251.72 690.632 267.687 659.036C293.583 607.793 355.025 544.819 392.032 554.377C429.415 563.915 398.466 624.578 398.466 624.578C398.466 624.578 405.907 625.545 423.73 613.381C449.389 595.865 483.258 548.749 519.93 554.278C537.219 556.885 553.325 574.558 531.298 608.128C524.272 618.91 512.489 628.547 503.469 619.009C497.844 613.085 502.758 602.283 508.66 594.898C510.957 591.887 513.958 589.488 517.4 587.911C520.842 586.333 524.618 585.627 528.397 585.854C528.397 585.854 534.456 572.031 519.041 572.228C506.568 572.465 474.988 601.553 457.165 630.936C440.823 657.911 416.052 703.862 440.921 713.874C463.718 723.076 507.1 671.556 527.193 644.562C547.285 617.567 593.076 556.391 631.485 553.942C644.709 553.073 652.584 565.139 652.584 565.139L657.025 558.109H695.433C695.433 558.109 623.096 678.882 617.451 688.025C613.011 695.173 607.109 711.248 623.373 702.243C639.636 693.238 673.722 649.439 673.722 649.439ZM652.821 842.96C624.54 823.374 590.676 813.487 556.305 814.781C547.002 815.035 537.89 817.479 529.708 821.916C521.526 826.352 514.504 832.655 509.212 840.314C494.567 814.742 465.613 799.043 420.849 799.398C348.511 800.228 276.766 833.6 219.923 833.561C165.448 833.561 125.717 799.3 127 738.459C129.388 631.687 219.568 535.538 286.872 492.272C325.675 467.411 358.123 460.025 379.341 462.415C394.815 464.133 413.427 482.024 401.684 508.386C384.433 546.912 360.61 543.753 361.499 525.329C361.992 513.342 369.966 505.799 375.966 501.632C379.775 499.006 386.506 498.256 390.019 498.177C393.433 495.294 395.94 474.204 368.308 481.135C340.676 488.066 307.122 515.317 275.266 550.526C243.41 585.735 193.811 652.283 181.554 722.168C175.83 754.573 179.58 813.676 256.378 813.004C321.511 812.471 417.513 769.561 505.739 770.449C539.983 770.785 569.786 780.027 593.017 794.363C615.833 808.423 643.189 828.96 652.9 842.98" fill="white"/>
</g>
</g>
<defs>
<clipPath id="clip0_465_686">
<rect width="1462.9" height="1462.9" fill="white"/>
</clipPath>
<clipPath id="clip1_465_686">
<rect width="1214" height="381" fill="white" transform="translate(127 462)"/>
</clipPath>
</defs>
</svg>
