<svg width="24" height="24" viewBox="0 0 24 24" fill="none" xmlns="http://www.w3.org/2000/svg">
<path d="M12 6C12.4142 6 12.75 6.33579 12.75 6.75L12.75 17.25C12.75 17.6642 12.4142 18 12 18C11.5858 18 11.25 17.6642 11.25 17.25L11.25 6.75C11.25 6.33579 11.5858 6 12 6Z" fill="#FDFFFD"/>
<path d="M6.75 12C7.16421 12 7.5 12.3358 7.5 12.75L7.5 17.25C7.5 17.6642 7.16421 18 6.75 18C6.33579 18 6 17.6642 6 17.25V12.75C6 12.3358 6.33579 12 6.75 12Z" fill="#FDFFFD"/>
<path d="M18 9.75C18 9.33579 17.6642 9 17.25 9C16.8358 9 16.5 9.33579 16.5 9.75V17.25C16.5 17.6642 16.8358 18 17.25 18C17.6642 18 18 17.6642 18 17.25V9.75Z" fill="#FDFFFD"/>
</svg>
