<svg width="36" height="36" viewBox="0 0 36 36" fill="none" xmlns="http://www.w3.org/2000/svg">
    <path
        d="M16.3135 22.8944L24.1102 15.0977L23.0308 14.0304L16.3135 20.7552L12.9276 17.3692L11.8675 18.4365L16.3135 22.8944ZM18.002 29C16.4885 29 15.0636 28.7113 13.7274 28.1339C12.3912 27.5565 11.2247 26.7697 10.2279 25.7735C9.23136 24.7772 8.44418 23.6112 7.86639 22.2755C7.2888 20.9399 7 19.5154 7 18.002C7 16.4806 7.2887 15.0505 7.86611 13.7117C8.44351 12.373 9.2303 11.2086 10.2265 10.2184C11.2228 9.22818 12.3888 8.44418 13.7245 7.86639C15.0601 7.2888 16.4846 7 17.998 7C19.5194 7 20.9495 7.2887 22.2883 7.8661C23.627 8.44351 24.7914 9.22711 25.7816 10.2169C26.7718 11.2067 27.5558 12.3707 28.1336 13.7088C28.7112 15.047 29 16.4767 29 17.998C29 19.5115 28.7113 20.9364 28.1339 22.2726C27.5565 23.6088 26.7729 24.7753 25.7831 25.7721C24.7933 26.7686 23.6293 27.5558 22.2912 28.1336C20.953 28.7112 19.5233 29 18.002 29ZM18 27.5451C20.6591 27.5451 22.9148 26.6171 24.767 24.7609C26.6191 22.9048 27.5451 20.6512 27.5451 18C27.5451 15.3409 26.6191 13.0852 24.767 11.233C22.9148 9.38092 20.6591 8.4549 18 8.4549C15.3488 8.4549 13.0952 9.38092 11.2391 11.233C9.38295 13.0852 8.45489 15.3409 8.45489 18C8.45489 20.6512 9.38295 22.9048 11.2391 24.7609C13.0952 26.6171 15.3488 27.5451 18 27.5451Z"
        fill="#FDFFFD" />
</svg>
