<svg width="36" height="36" viewBox="0 0 36 36" fill="none" xmlns="http://www.w3.org/2000/svg">
<path d="M15.4302 23.5068L24.9989 13.9381L23.6741 12.6283L15.4302 20.8814L11.2747 16.7259L9.97375 18.0357L15.4302 23.5068ZM17.5025 31C15.6449 31 13.8962 30.6457 12.2563 29.9371C10.6164 29.2284 9.18483 28.2628 7.96154 27.0402C6.73849 25.8174 5.77241 24.3864 5.0633 22.7472C4.35443 21.1081 4 19.3598 4 17.5025C4 15.6352 4.35432 13.8801 5.06295 12.2371C5.77158 10.5942 6.73718 9.16505 7.95976 7.94982C9.18258 6.73458 10.6136 5.77241 12.2528 5.0633C13.8919 4.35443 15.6402 4 17.4975 4C19.3648 4 21.1199 4.35432 22.7629 5.06295C24.4058 5.77158 25.8349 6.73328 27.0502 7.94804C28.2654 9.1628 29.2276 10.5913 29.9367 12.2336C30.6456 13.8758 31 15.6305 31 17.4975C31 19.3551 30.6457 21.1038 29.9371 22.7437C29.2284 24.3836 28.2667 25.8152 27.052 27.0385C25.8372 28.2615 24.4087 29.2276 22.7664 29.9367C21.1242 30.6456 19.3695 31 17.5025 31ZM17.5 29.2144C20.7634 29.2144 23.5318 28.0755 25.805 25.7975C28.078 23.5196 29.2144 20.7537 29.2144 17.5C29.2144 14.2366 28.078 11.4682 25.805 9.19501C23.5318 6.92204 20.7634 5.78555 17.5 5.78555C14.2463 5.78555 11.4804 6.92204 9.20247 9.19501C6.92453 11.4682 5.78555 14.2366 5.78555 17.5C5.78555 20.7537 6.92453 23.5196 9.20247 25.7975C11.4804 28.0755 14.2463 29.2144 17.5 29.2144Z" fill="#FDFFFD"/>
</svg>
