<svg width="36" height="36" viewBox="0 0 36 36" fill="none" xmlns="http://www.w3.org/2000/svg">
<path d="M11.75 6H10C9.05719 6 8.58579 6 8.29289 6.29289C8 6.58579 8 7.05719 8 8V28C8 28.9428 8 29.4142 8.29289 29.7071C8.58579 30 9.05719 30 10 30H26C26.9428 30 27.4142 30 27.7071 29.7071C28 29.4142 28 28.9428 28 28V8C28 7.05719 28 6.58579 27.7071 6.29289C27.4142 6 26.9428 6 26 6H24.25" stroke="#FDFFFD" stroke-width="1.5"/>
<path d="M12 6C12 5.05719 12 4.58579 12.2929 4.29289C12.5858 4 13.0572 4 14 4H22C22.9428 4 23.4142 4 23.7071 4.29289C24 4.58579 24 5.05719 24 6C24 6.94281 24 7.41421 23.7071 7.70711C23.4142 8 22.9428 8 22 8H14C13.0572 8 12.5858 8 12.2929 7.70711C12 7.41421 12 6.94281 12 6Z" stroke="#FDFFFD" stroke-width="1.5"/>
<path d="M13 14.0001H23M13 19.0001H23M13 24.0001H17" stroke="#FDFFFD" stroke-width="1.5" stroke-linecap="round" stroke-linejoin="round"/>
</svg>
