<svg width="16" height="16" viewBox="0 0 16 16" fill="none" xmlns="http://www.w3.org/2000/svg">
<path d="M11.0305 2C10.4162 2.03755 9.81979 2.22858 9.29211 2.55679C8.77387 2.87913 8.33702 3.32439 8.0174 3.85577C8.00959 3.86874 8.00569 3.87522 8.00004 3.87522C7.99439 3.87522 7.99049 3.86874 7.98269 3.85577C7.66306 3.32439 7.22622 2.87913 6.70797 2.55679C6.18029 2.22858 5.58386 2.03755 4.96956 2C4.00519 2 3.08031 2.39717 2.39839 3.10415C1.71647 3.81112 1.33337 4.76999 1.33337 5.7698C1.33337 9.36977 8.00004 14 8.00004 14C8.00004 14 14.6667 9.41815 14.6667 5.7698C14.6667 4.76999 14.2836 3.81112 13.6017 3.10415C12.9198 2.39717 11.9949 2 11.0305 2Z" stroke="#FDFFFD" stroke-linecap="round" stroke-linejoin="round"/>
</svg>
