<svg width="36" height="36" viewBox="0 0 36 36" fill="none" xmlns="http://www.w3.org/2000/svg">
<path d="M18.453 24.9814C18.6902 24.743 18.8088 24.4612 18.8088 24.136C18.8088 23.8107 18.6911 23.528 18.4559 23.2877C18.2203 23.0474 17.9384 22.9272 17.6101 22.9272C17.2818 22.9272 16.9974 23.0464 16.7571 23.2848C16.5168 23.5234 16.3966 23.8053 16.3966 24.1306C16.3966 24.4558 16.516 24.7385 16.7546 24.9789C16.993 25.2192 17.2764 25.3393 17.6047 25.3393C17.933 25.3393 18.2158 25.22 18.453 24.9814ZM16.6208 20.4086H18.3199C18.3323 19.792 18.4312 19.2594 18.6163 18.8109C18.8017 18.3624 19.2422 17.8253 19.9377 17.1996C20.6258 16.5782 21.121 15.992 21.4234 15.4411C21.7261 14.8903 21.8774 14.2754 21.8774 13.5967C21.8774 12.4093 21.4822 11.4611 20.6917 10.7522C19.9012 10.043 18.9006 9.68838 17.6899 9.68838C16.5949 9.68838 15.65 9.9697 14.8555 10.5324C14.0607 11.095 13.4755 11.808 13.0999 12.6714L14.672 13.2719C14.9102 12.6835 15.2683 12.2003 15.7466 11.8221C16.2248 11.4438 16.8431 11.2547 17.6015 11.2547C18.4716 11.2547 19.1393 11.4925 19.6045 11.9681C20.0698 12.4437 20.3025 13.0096 20.3025 13.6658C20.3025 14.1757 20.1589 14.6426 19.8718 15.0666C19.5848 15.4907 19.1872 15.9262 18.6793 16.3733C17.9161 17.0534 17.3822 17.6848 17.0777 18.2673C16.7731 18.8499 16.6208 19.5636 16.6208 20.4086ZM17.5047 31C15.6472 31 13.8976 30.6443 12.2559 29.933C10.6143 29.2216 9.18293 28.2551 7.96193 27.0334C6.74118 25.8119 5.77573 24.3823 5.06558 22.7444C4.35519 21.1069 4 19.3603 4 17.5047C4 15.6373 4.35567 13.8813 5.06702 12.2365C5.77837 10.5917 6.7449 9.16086 7.96661 7.94395C9.18808 6.72727 10.6177 5.76578 12.2556 5.05947C13.8931 4.35316 15.6397 4 17.4953 4C19.3627 4 21.1187 4.35459 22.7635 5.06378C24.4085 5.77321 25.8394 6.73578 27.0561 7.9515C28.2727 9.16722 29.2342 10.5954 29.9405 12.2361C30.6468 13.8768 31 15.6299 31 17.4953C31 19.3528 30.6462 21.1024 29.9387 22.7441C29.2315 24.3857 28.269 25.8171 27.0514 27.0381C25.8337 28.2588 24.4046 29.2243 22.7639 29.9344C21.1232 30.6448 19.3701 31 17.5047 31ZM17.4989 29.2772C20.7698 29.2772 23.5505 28.1298 25.8412 25.8351C28.1318 23.5403 29.2772 20.7623 29.2772 17.5011C29.2772 14.2302 28.1322 11.4495 25.8423 9.15882C23.5526 6.86817 20.7722 5.72285 17.5011 5.72285C14.2401 5.72285 11.4618 6.86781 9.16638 9.15774C6.87069 11.4474 5.72285 14.2278 5.72285 17.4989C5.72285 20.7599 6.87021 23.5382 9.16494 25.8336C11.4597 28.1293 14.2377 29.2772 17.4989 29.2772Z" fill="#FDFFFD"/>
</svg>
