<svg id="Color" enable-background="new 0 0 24 24" height="512" viewBox="0 0 24 24" width="512" xmlns="http://www.w3.org/2000/svg"><path d="m14.59 8.08v.01c0 .39-.3.71-.68.71s-.68-.32-.68-.71c0-.4.3-.72.68-.72s.67.31.68.71z" fill="#ffc107"/><path d="m10.5 20.05c0 .01-.01.03-.02.04 0-.02.01-.03.01-.04z"/><path d="m10.5 20.05c0 .01-.01.03-.02.04 0-.02.01-.03.01-.04z" fill="#4caf50"/><path d="m17.87 4.93c-.04-.17-.15-.31-.31-.41-.35-.22-.82-.12-1.04.24l-.17.27-.91 1.48c-.39-.39-.94-.64-1.53-.64-.66 0-1.25.3-1.64.77l-1.6-1.96c-.24-.3-.66-.36-.98-.16-.32.21-.44.62-.27.96.01.02.31.65.64 1.69-1.36-.44-2.16-1.64-2.43-2.12-.07-.12-.1-.19-.11-.21-.17-.38-.62-.54-.99-.37-.21.09-.35.27-.41.47.53-2.77 2.93-4.9 5.79-4.94 2.66-.03 4.93 1.65 5.8 4.31.07.2.12.41.16.62z" fill="#ffc107"/><path d="m12 0h-.12c-2.847.055-5.232 2.18-5.76 4.94.06-.2.2-.38.41-.47.1-.046.205-.068.309-.068.283 0 .556.16.68.438.01.02.04.09.11.21.271.48 1.071 1.68 2.431 2.12-.33-1.04-.63-1.67-.64-1.69-.17-.34-.05-.75.27-.96.125-.078.265-.117.404-.117.217 0 .43.094.576.277l1.33 1.629z" fill="#dea806"/><path d="m17.91 5.17-.01-.11-.03-.13c-.04-.17-.15-.31-.31-.41-.35-.22-.82-.12-1.04.24l-.17.27-.91 1.48c-.39-.39-.94-.64-1.53-.64-.66 0-1.25.3-1.64.77l-1.6-1.96c-.24-.3-.66-.36-.98-.16-.32.21-.44.62-.27.96.01.02.31.65.64 1.69.15.47.3 1.02.43 1.63.5 2.19.77 5.2-.24 8.21-.27.82-.64 1.63-1.12 2.43l-.04.08-.08.15-.43.71c.11-.16.28-.28.48-.31l.14-.02h5.6c.26 0 .49.13.62.33l-.43-.71c-.17-.29-.22-.64-.14-.97l2.82-10.59c.09-.25.16-.51.21-.77l.02-.12c.12-.7.13-1.39.01-2.05zm-3.32 2.92c0 .39-.3.71-.68.71s-.68-.32-.68-.71c0-.4.3-.72.68-.72s.67.31.68.71z" fill="#ffb300"/><path d="m10.25 17.01c-.27.82-.64 1.63-1.12 2.43l-.04.08c.1-.25.13-.55.06-.82l-2.82-10.58c-.09-.25-.17-.56-.22-.85l-.01-.04c-.07-.38-.1-.74-.1-1.1 0-.34.03-.66.09-.98l.03-.21c.06-.2.2-.38.41-.47.37-.17.82-.01.99.37.01.02.04.09.11.21.27.48 1.07 1.68 2.43 2.12.15.47.3 1.02.43 1.63.5 2.19.77 5.2-.24 8.21z" fill="#f9a825"/><path d="m10.094 4.403c-.139 0-.279.038-.404.117-.32.21-.44.62-.27.96.01.02.31.65.64 1.69.15.47.3 1.02.43 1.63.252 1.104.445 2.416.446 3.831.001 1.393-.185 2.886-.686 4.379-.27.82-.64 1.63-1.12 2.43l-.04.08-.08.15-.43.71c.11-.16.28-.28.48-.31l.14-.02h4.71v-11.25c-.38 0-.68-.32-.68-.71 0-.4.3-.72.68-.72v-1.5c-.66 0-1.25.3-1.64.77l-1.6-1.96c-.146-.183-.359-.277-.576-.277z" fill="#de9c00"/><path d="m16.95 23.62c-.13.23-.38.38-.65.38h-8.6c-.27 0-.52-.15-.65-.38-.13-.24-.13-.53.01-.76l1.52-2.48c.11-.16.28-.28.48-.31l.14-.02h1.29l-.01.04.02-.04h4.3c.26 0 .49.13.62.33l1.52 2.48c.14.23.14.52.01.76z" fill="#4caf50"/><path d="m12 20.09h-1.52-1.51c-.161.048-.297.154-.39.29l-1.52 2.48c-.14.23-.14.52-.01.76.13.23.38.38.65.38h4.3z" fill="#429846"/></svg>