<svg width="512" height="512" viewBox="0 0 512 512" fill="none" xmlns="http://www.w3.org/2000/svg">
<g clip-path="url(#clip0_588_510)">
<path d="M360.327 479.398L397.414 445.736L423.433 412.467L465.547 398.84C470.25 394.702 474.379 389.754 477.686 384.027C485.997 369.633 487.556 353.197 483.35 338.379C479.279 324.03 483.358 308.801 494.063 298.416C505.126 287.685 512 272.664 512 256.033C512 239.411 505.133 224.397 494.082 213.667C483.381 203.277 479.299 188.048 483.378 173.702C487.593 158.877 486.036 142.431 477.72 128.028C469.409 113.633 455.955 104.065 441.019 100.298C426.556 96.6507 415.408 85.5027 411.767 71.0388C408.004 56.0926 398.434 42.6291 384.031 34.3137C369.635 26.003 353.2 24.443 338.381 28.6498C324.033 32.7215 308.804 28.6428 298.418 17.9368C287.687 6.87543 272.667 0 256.035 0C239.413 0 224.399 6.86736 213.669 17.9184C203.279 28.6186 188.05 32.7007 173.704 28.6221C158.879 24.4073 142.434 25.9637 128.03 34.2802C113.636 42.591 104.067 56.0453 100.3 70.9811C96.653 85.4427 85.5051 96.5918 71.0411 100.233C56.095 103.996 42.6314 113.566 34.3149 127.969C26.0041 142.364 24.4442 158.8 28.6498 173.618C32.7215 187.966 28.6428 203.195 17.9368 213.58C6.87428 224.312 0 239.333 0 255.964C0 272.585 6.86736 287.599 17.9184 298.33C28.6186 308.72 32.7007 323.947 28.6221 338.295C24.4073 353.12 25.9637 369.566 34.2791 383.969C42.5898 398.363 56.0442 407.932 70.98 411.699C85.4416 415.346 96.5907 426.494 100.232 440.958C103.995 455.904 113.565 469.367 127.969 477.684C142.364 485.995 158.8 487.553 173.618 483.348C187.966 479.276 203.195 483.355 213.58 494.061C224.312 505.123 239.333 511.998 255.964 511.998C272.586 511.998 287.599 505.13 298.33 494.079C308.72 483.378 323.947 479.297 338.295 483.376C339.121 483.61 339.954 483.821 340.789 484.019L360.327 479.398Z" fill="#FFD659"/>
<path d="M264.9 432.064L316.065 419.04L391.634 357.407L407.926 287.137V181.536L343.741 105.966L263.852 79.285H242.366C150.876 86.2631 78.8119 162.71 78.8119 255.988C78.8119 349.266 150.875 425.711 242.365 432.691L264.9 432.064Z" fill="#FFB347"/>
<path d="M273.694 159.491L292.137 196.861C293.571 199.767 296.344 201.781 299.55 202.247L340.791 208.239C356.942 210.586 363.392 230.435 351.705 241.827L321.862 270.917C319.542 273.179 318.483 276.438 319.031 279.631L326.076 320.706C328.835 336.792 311.951 349.06 297.505 341.464L260.617 322.071C257.749 320.563 254.322 320.563 251.453 322.071L214.567 341.464C200.121 349.058 183.237 336.792 185.996 320.706L193.041 279.631C193.589 276.438 192.529 273.178 190.209 270.917L160.366 241.827C148.68 230.435 155.128 210.587 171.28 208.239L212.521 202.247C215.729 201.781 218.5 199.766 219.934 196.861L238.378 159.491C245.6 144.855 266.47 144.855 273.694 159.491Z" fill="#FFD659"/>
<path d="M512 256.033C512 239.411 505.133 224.397 494.082 213.667C483.381 203.277 479.299 188.048 483.378 173.702C487.593 158.877 486.036 142.431 477.72 128.028C469.409 113.633 455.955 104.065 441.019 100.298C426.556 96.6507 415.408 85.5027 411.767 71.0388C408.004 56.0926 398.434 42.6291 384.031 34.3137C370.431 26.4622 355.011 24.6438 340.853 28.0117C346.279 29.3063 351.614 31.3808 356.693 34.3137C371.096 42.6291 380.668 56.0938 384.429 71.0388C388.07 85.5027 399.219 96.6507 413.681 100.298C428.617 104.065 442.071 113.633 450.382 128.028C458.698 142.431 460.254 158.877 456.04 173.702C451.961 188.048 456.044 203.277 466.744 213.667C477.795 224.397 484.662 239.41 484.662 256.033C484.662 272.665 477.787 287.685 466.725 298.416C456.02 308.801 451.941 324.03 456.012 338.379C460.218 353.197 458.659 369.633 450.348 384.027C442.033 398.43 428.568 408.001 413.622 411.765C399.158 415.406 388.011 426.555 384.363 441.017C380.596 455.952 371.028 469.407 356.633 477.717C351.554 480.65 346.219 482.725 340.793 484.019C354.951 487.388 370.371 485.57 383.971 477.717C398.367 469.407 407.934 455.952 411.701 441.017C415.348 426.555 426.496 415.406 440.96 411.765C455.906 408.002 469.37 398.431 477.686 384.027C485.997 369.633 487.556 353.197 483.35 338.379C479.279 324.03 483.358 308.801 494.063 298.416C505.126 287.685 512 272.664 512 256.033Z" fill="#FFC552"/>
<path d="M256.035 78.7657C251.435 78.7657 246.878 78.9411 242.366 79.2861C333.856 86.2654 405.919 162.711 405.919 255.989C405.919 349.267 333.856 425.713 242.366 432.692C246.878 433.036 251.436 433.212 256.035 433.212C353.912 433.212 433.257 353.867 433.257 255.99C433.258 158.111 353.912 78.7657 256.035 78.7657Z" fill="#FF9E3D"/>
</g>
<defs>
<clipPath id="clip0_588_510">
<rect width="512" height="512" fill="white"/>
</clipPath>
</defs>
</svg>
