<svg id="Layer_52" height="512" viewBox="0 0 64 64" width="512" xmlns="http://www.w3.org/2000/svg" data-name="Layer 52"><g id="Layer_50" data-name="Layer 50"><rect fill="#91e085" height="56" rx="3" transform="matrix(0 -1 1 0 0 64)" width="40" x="12" y="4"/><g fill="#344266"><path d="m57 53h-50a4 4 0 0 1 -4-4v-34a4 4 0 0 1 4-4h50a4 4 0 0 1 4 4v34a4 4 0 0 1 -4 4zm-50-40a2 2 0 0 0 -2 2v34a2 2 0 0 0 2 2h50a2 2 0 0 0 2-2v-34a2 2 0 0 0 -2-2z"/><path d="m32 42.5a10.5 10.5 0 1 1 10.5-10.5 10.51 10.51 0 0 1 -10.5 10.5zm0-19a8.5 8.5 0 1 0 8.5 8.5 8.51 8.51 0 0 0 -8.5-8.5z"/><path d="m32 53a1 1 0 0 1 -1-1v-40a1 1 0 0 1 2 0v40a1 1 0 0 1 -1 1z"/><path d="m60 39.5h-8.75a1 1 0 0 1 -1-1v-13a1 1 0 0 1 1-1h8.75a1 1 0 0 1 1 1v13a1 1 0 0 1 -1 1zm-7.75-2h6.75v-11h-6.75z"/><path d="m12.75 39.5h-8.75a1 1 0 0 1 -1-1v-13a1 1 0 0 1 1-1h8.75a1 1 0 0 1 1 1v13a1 1 0 0 1 -1 1zm-7.75-2h6.75v-11h-6.75z"/></g></g></svg>