<svg id="Flat" height="512" viewBox="0 0 128 128" width="512" xmlns="http://www.w3.org/2000/svg"><path d="m103.326 51.35c0 2.75 3.486 5.81 2.972 8.409-.533 2.68-4.933 4.17-5.953 6.636-1.038 2.511 1 6.68-.488 8.907-1.508 2.253-6.139 1.942-8.046 3.85s-1.606 6.538-3.85 8.046a2.934 2.934 0 0 1 -1.011.426c-2.325.567-5.722-.834-7.9.062-2.466 1.029-3.965 5.429-6.644 5.952-2.466.488-5.349-2.617-7.984-2.927a2.269 2.269 0 0 0 -.422-.036 3.351 3.351 0 0 0 -.417.027c-2.635.31-5.527 3.424-7.993 2.936-2.679-.523-4.178-4.923-6.644-5.952-2.174-.9-5.571.5-7.9-.062a2.934 2.934 0 0 1 -1.011-.426c-2.244-1.5-1.943-6.139-3.85-8.046s-6.538-1.6-8.037-3.85c-1.5-2.227.541-6.4-.5-8.907-1.02-2.466-5.42-3.956-5.953-6.636-.514-2.6 2.972-5.659 2.972-8.409s-3.486-5.811-2.972-8.419c.533-2.679 4.933-4.169 5.953-6.636 1.038-2.51-1-6.671.488-8.906 1.508-2.245 6.139-1.943 8.046-3.85s1.618-6.539 3.857-8.046c2.236-1.491 6.4.55 8.907-.488 2.466-1.021 3.965-5.421 6.644-5.953 2.6-.514 5.66 2.972 8.41 2.972s5.811-3.486 8.41-2.972c2.679.532 4.178 4.932 6.644 5.953 2.511 1.038 6.671-1 8.907.488 2.244 1.508 1.943 6.138 3.85 8.046s6.538 1.6 8.037 3.85c1.5 2.226-.541 6.4.5 8.906 1.02 2.467 5.42 3.957 5.953 6.636.511 2.608-2.975 5.66-2.975 8.419z" fill="#f7ca59"/><circle cx="64" cy="51.345" fill="#f0b04a" r="30.168"/><path d="m97.267 109.7-13.218-2.546-6.37 11.846-13.253-28.29c2.635.311 5.518 3.416 7.984 2.928 2.679-.524 4.178-4.924 6.644-5.953 2.174-.9 5.571.506 7.9-.062z" fill="#db2a48"/><path d="m63.583 90.7-13.262 28.3-6.37-11.851-13.209 2.551 10.308-22.077c2.325.568 5.722-.834 7.9.062 2.466 1.029 3.965 5.429 6.644 5.953 2.462.488 5.354-2.626 7.989-2.938z" fill="#db2a48"/><path d="m64 35.426 5.173 10.481 11.566 1.681-8.37 8.158 1.976 11.519-10.345-5.438-10.345 5.438 1.976-11.519-8.37-8.158 11.566-1.681z" fill="#f7ca59"/></svg>