<svg width="36" height="36" viewBox="0 0 36 36" fill="none" xmlns="http://www.w3.org/2000/svg">
<path d="M24.5858 5.41421C25.2525 4.74755 25.5858 4.41421 26 4.41421C26.4142 4.41421 26.7475 4.74755 27.4142 5.41421L28.8284 6.82843C29.4951 7.49509 29.8284 7.82843 29.8284 8.24264C29.8284 8.65685 29.4951 8.99019 28.8284 9.65685L13.6835 24.8018C13.5589 24.9264 13.4966 24.9887 13.4248 25.0389C13.353 25.0891 13.2732 25.1263 13.1135 25.2007L5.4939 28.7487L9.04196 21.1291C9.11632 20.9694 9.1535 20.8896 9.20374 20.8178C9.25398 20.746 9.31626 20.6837 9.44082 20.5592L24.5858 5.41421Z" stroke="#FDFFFD" stroke-width="1.5" stroke-linecap="round" stroke-linejoin="round"/>
<path d="M21.1512 8.84875L25.3939 13.0914" stroke="#FDFFFD" stroke-width="1.5"/>
</svg>
