<svg width="24" height="24" viewBox="0 0 24 24" fill="none" xmlns="http://www.w3.org/2000/svg">
<path d="M11.5 5.50001C11.5 4.82456 12.0579 4.21768 12.8013 4.26903C13.6632 4.32857 14.511 4.52743 15.3115 4.85898C16.2821 5.26102 17.164 5.85029 17.9069 6.59316C18.6497 7.33603 19.239 8.21794 19.641 9.18855C19.9726 9.98898 20.1714 10.8368 20.231 11.6987C20.2823 12.4421 19.6755 13 19 13H13.25C12.2835 13 11.5 12.2165 11.5 11.25V5.50001Z" fill="#FDFFFD"/>
<path d="M9.66854 6.28461C10.0487 6.12011 10.2235 5.67858 10.059 5.29843C9.89449 4.91829 9.45296 4.74347 9.07282 4.90798C7.87517 5.42625 6.82248 6.22963 6.00656 7.24807C5.19063 8.26652 4.63623 9.4691 4.3917 10.751C4.14717 12.0328 4.21994 13.3551 4.60366 14.6023C4.98737 15.8496 5.67039 16.9841 6.59315 17.9069C7.51591 18.8296 8.65039 19.5126 9.89768 19.8964C11.145 20.2801 12.4672 20.3528 13.7491 20.1083C15.0309 19.8638 16.2335 19.3094 17.2519 18.4935C18.2704 17.6775 19.0738 16.6248 19.592 15.4272C19.7565 15.0471 19.5817 14.6055 19.2016 14.441C18.8214 14.2765 18.3799 14.4513 18.2154 14.8315C17.7943 15.8046 17.1416 16.6599 16.3141 17.3228C15.4866 17.9858 14.5095 18.4362 13.468 18.6349C12.4265 18.8336 11.3522 18.7744 10.3387 18.4627C9.32532 18.1509 8.40355 17.596 7.65381 16.8462C6.90407 16.0965 6.34912 15.1747 6.03735 14.1613C5.72558 13.1479 5.66645 12.0736 5.86513 11.032C6.06381 9.99052 6.51426 9.01342 7.1772 8.18594C7.84014 7.35845 8.69545 6.7057 9.66854 6.28461Z" fill="#FDFFFD"/>
</svg>
