<svg width="36" height="36" viewBox="0 0 36 36" fill="none" xmlns="http://www.w3.org/2000/svg">
<path d="M30 28.5V13.5C30 12.5572 30 12.0858 29.7071 11.7929C29.4142 11.5 28.9423 11.5 27.9985 11.5H16.0015C15.0577 11.5 14.5858 11.5 14.2929 11.7929C14 12.0858 14 12.5572 14 13.5V28.5C14 29.4428 14 29.9142 14.2929 30.2071C14.5858 30.5 15.0572 30.5 16 30.5H28C28.9428 30.5 29.4142 30.5 29.7071 30.2071C30 29.9142 30 29.4428 30 28.5Z" stroke="#FDFFFD" stroke-width="1.5"/>
<path d="M22 11.5V6.5C22 5.55719 22 5.08579 21.7071 4.79289C21.4142 4.5 20.9423 4.5 19.9985 4.5C15.5714 4.5 12.4286 4.5 8.00153 4.5C7.0577 4.5 6.58579 4.5 6.29289 4.79289C6 5.08579 6 5.55719 6 6.5V21.5C6 22.4428 6 22.9142 6.29289 23.2071C6.58579 23.5 7.05719 23.5 8 23.5H14" stroke="#FDFFFD" stroke-width="1.5"/>
</svg>
