<svg width="24" height="24" viewBox="0 0 24 24" fill="none" xmlns="http://www.w3.org/2000/svg">
<path d="M20 19.3334V10.6667C20 9.72388 20 9.25247 19.7071 8.95958C19.4142 8.66669 18.9425 8.66669 17.9991 8.66669H11.3342C10.3908 8.66669 9.9191 8.66669 9.62621 8.95958C9.33331 9.25247 9.33331 9.72388 9.33331 10.6667V19.3334C9.33331 20.2762 9.33331 20.7476 9.62621 21.0405C9.9191 21.3334 10.3905 21.3334 11.3333 21.3334H18C18.9428 21.3334 19.4142 21.3334 19.7071 21.0405C20 20.7476 20 20.2762 20 19.3334Z" stroke="#FDFFFD" stroke-width="1.5"/>
<path d="M14.6667 8.66667V6C14.6667 5.05719 14.6667 4.58579 14.3738 4.29289C14.0809 4 13.6092 4 12.6658 4C10.2712 4 8.39542 4 6.00088 4C5.05748 4 4.58579 4 4.29289 4.29289C4 4.58579 4 5.05719 4 6V14.6667C4 15.6095 4 16.0809 4.29289 16.3738C4.58579 16.6667 5.05719 16.6667 6 16.6667H9.33333" stroke="#FDFFFD" stroke-width="1.5"/>
</svg>
