<svg width="36" height="36" viewBox="0 0 36 36" fill="none" xmlns="http://www.w3.org/2000/svg">
<path d="M27.3684 28V9C27.3684 8.05719 27.3684 7.58579 27.0755 7.29289C26.7826 7 26.3111 7 25.3679 7H10.0005C9.05736 7 8.58579 7 8.29289 7.29289C8 7.58579 8 8.05719 8 9V28C8 28.9428 8 29.4142 8.29289 29.7071C8.58579 30 9.05719 30 10 30H25.3684C26.3112 30 26.7826 30 27.0755 29.7071C27.3684 29.4142 27.3684 28.9428 27.3684 28Z" stroke="#FDFFFD" stroke-width="1.5"/>
<path d="M22 22L14 14" stroke="#FDFFFD" stroke-width="1.5" stroke-linecap="round" stroke-linejoin="round"/>
<path d="M14 22L22 14" stroke="#FDFFFD" stroke-width="1.5" stroke-linecap="round" stroke-linejoin="round"/>
</svg>
