<svg width="24" height="24" viewBox="0 0 24 24" fill="none" xmlns="http://www.w3.org/2000/svg">
    <path
        d="M11.9307 20C9.90008 20 8.12992 19.3368 6.62025 18.0105C5.11058 16.6843 4.23717 15.0142 4 13H5.0115C5.28333 14.7205 6.067 16.1507 7.3625 17.2905C8.658 18.4302 10.1807 19 11.9307 19C13.8807 19 15.5349 18.3208 16.8933 16.9625C18.2516 15.6042 18.9308 13.95 18.9308 12C18.9308 10.05 18.2516 8.39583 16.8933 7.0375C15.5349 5.67917 13.8807 5 11.9307 5C10.8961 5 9.92367 5.21858 9.0135 5.65575C8.10317 6.09292 7.29992 6.69483 6.60375 7.4615H9.08475V8.4615H4.93075V4.30775H5.93075V6.69625C6.70392 5.84742 7.61 5.18583 8.649 4.7115C9.68817 4.23717 10.7821 4 11.9307 4C13.0397 4 14.0792 4.20867 15.049 4.626C16.0188 5.04333 16.8663 5.6145 17.5913 6.3395C18.3163 7.0645 18.8874 7.91192 19.3048 8.88175C19.7221 9.85158 19.9308 10.891 19.9308 12C19.9308 13.109 19.7221 14.1484 19.3048 15.1183C18.8874 16.0881 18.3163 16.9355 17.5913 17.6605C16.8663 18.3855 16.0188 18.9567 15.049 19.374C14.0792 19.7913 13.0397 20 11.9307 20Z"
        fill="#FDFFFD" />
    <path
        d="M11.7477 16.5V15.4229C11.2936 15.3645 10.9035 15.2074 10.5774 14.9515C10.2513 14.6956 10.0088 14.3416 9.84998 13.8896L10.3406 13.6759C10.4933 14.0722 10.7033 14.3773 10.9703 14.5911C11.2374 14.8049 11.5997 14.9118 12.0572 14.9118C12.4597 14.9118 12.8273 14.8115 13.1603 14.6109C13.4932 14.4104 13.6596 14.0871 13.6596 13.6412C13.6596 13.2645 13.5371 12.9619 13.2921 12.7335C13.047 12.5051 12.5886 12.2831 11.9167 12.0672C11.2325 11.8493 10.7509 11.6003 10.472 11.3204C10.193 11.0404 10.0535 10.6758 10.0535 10.2265C10.0535 9.73438 10.2422 9.34138 10.6196 9.04747C10.997 8.75365 11.373 8.59482 11.7477 8.571V7.5H12.2771V8.571C12.6436 8.60771 12.9584 8.70935 13.2214 8.87594C13.4844 9.04262 13.7025 9.27966 13.8755 9.58707L13.4051 9.82743C13.2788 9.59934 13.1051 9.41471 12.8839 9.27353C12.6626 9.13235 12.3809 9.06176 12.0388 9.06176C11.6302 9.06176 11.2854 9.16985 11.0045 9.38603C10.7235 9.60221 10.5829 9.88235 10.5829 10.2265C10.5829 10.5516 10.6984 10.815 10.9292 11.0165C11.1599 11.2181 11.6221 11.4285 12.3157 11.6477C12.9585 11.8513 13.4314 12.1128 13.7345 12.4321C14.0375 12.7515 14.189 13.1525 14.189 13.6351C14.189 14.1665 14.0021 14.5887 13.6281 14.9016C13.2541 15.2145 12.8037 15.3903 12.2771 15.429V16.5H11.7477Z"
        fill="#FDFFFD" />
</svg>
