<svg width="24" height="24" viewBox="0 0 24 24" fill="none" xmlns="http://www.w3.org/2000/svg">
<path d="M8.00006 9.33331H7.33337C6.39056 9.33331 5.91916 9.33331 5.62627 9.62621C5.33337 9.9191 5.33337 10.3905 5.33337 11.3333V19.3333C5.33337 20.2761 5.33337 20.7475 5.62627 21.0404C5.91916 21.3333 6.39056 21.3333 7.33337 21.3333H16.6667C17.6095 21.3333 18.0809 21.3333 18.3738 21.0404C18.6667 20.7475 18.6667 20.2761 18.6667 19.3333V11.3333C18.6667 10.3905 18.6667 9.9191 18.3738 9.62621C18.0809 9.33331 17.6095 9.33331 16.6667 9.33331H16.0001" stroke="#FDFFFD" stroke-width="1.5" stroke-linecap="round" stroke-linejoin="round"/>
<path d="M12 14.6667V4.00002M12 4.00002L14.6667 6.66669M12 4.00002L9.33337 6.66669" stroke="#FDFFFD" stroke-width="1.5" stroke-linecap="round" stroke-linejoin="round"/>
</svg>
