<svg width="36" height="36" viewBox="0 0 36 36" fill="none" xmlns="http://www.w3.org/2000/svg">
<path d="M30 30.0677V26.4277C30 25.1563 30 24.5206 29.7215 24.0497C29.55 23.7597 29.308 23.5177 29.0181 23.3463C28.5471 23.0677 27.9114 23.0677 26.64 23.0677H16.36C15.0886 23.0677 14.4529 23.0677 13.9819 23.3463C13.692 23.5177 13.45 23.7597 13.2785 24.0497C13 24.5206 13 25.1563 13 26.4277V30.0677" stroke="#FDFFFD" stroke-width="1.5" stroke-linecap="round" stroke-linejoin="round"/>
<path d="M4 25.0677V21.2277C4 20.1454 4 19.6042 4.20394 19.1879C4.39921 18.7893 4.72153 18.467 5.12012 18.2717C5.53642 18.0677 6.07762 18.0677 7.16 18.0677H11" stroke="#FDFFFD" stroke-width="1.5" stroke-linecap="round" stroke-linejoin="round"/>
<path d="M26.6667 14.401C26.6667 16.9784 24.5773 19.0677 22 19.0677C19.4227 19.0677 17.3333 16.9784 17.3333 14.401C17.3333 11.8237 19.4227 9.73435 22 9.73435C24.5773 9.73435 26.6667 11.8237 26.6667 14.401Z" stroke="#FDFFFD" stroke-width="1.5"/>
<path d="M15.4444 6.08624C14.6084 4.82881 13.1788 4.00008 11.5556 4.00008C8.97823 4.00008 6.88889 6.08942 6.88889 8.66675C6.88889 10.6986 8.18748 12.4272 10 13.0679" stroke="#FDFFFD" stroke-width="1.5" stroke-linecap="round"/>
</svg>
