<svg width="24" height="24" viewBox="0 0 24 24" fill="none" xmlns="http://www.w3.org/2000/svg">
<path d="M7.70698 10.5065L6.63022 10.968C4.91778 11.7019 4.06156 12.0689 4.04281 12.7071C4.02406 13.3454 4.85726 13.762 6.52366 14.5952L10.2112 16.4389C11.089 16.8778 11.5279 17.0972 12 17.0972C12.4721 17.0972 12.911 16.8778 13.7888 16.4389L17.4764 14.5952C19.1428 13.762 19.976 13.3454 19.9572 12.7071C19.9385 12.0689 19.0823 11.7019 17.3698 10.968L16.2931 10.5065" stroke="#FDFFFD" stroke-width="1.5"/>
<path d="M7.07882 14.7758L6.63022 14.9681C4.91778 15.702 4.06156 16.069 4.04281 16.7072C4.02406 17.3454 4.85726 17.762 6.52366 18.5952L10.2112 20.439C11.089 20.8778 11.5279 21.0973 12 21.0973C12.4721 21.0973 12.911 20.8778 13.7888 20.439L17.4764 18.5952C19.1428 17.762 19.976 17.3454 19.9572 16.7072C19.9385 16.069 19.0823 15.702 17.3698 14.9681L16.9212 14.7758" stroke="#FDFFFD" stroke-width="1.5"/>
<path d="M13.7888 11.7723L17.4764 9.92854C19.1428 9.09536 19.976 8.67877 19.9572 8.04052C19.9385 7.40228 19.0823 7.03532 17.3698 6.3014L13.5757 4.67532C12.7989 4.3424 12.4105 4.17594 12 4.17594C11.5895 4.17594 11.2011 4.3424 10.4243 4.67532L6.63022 6.3014C4.91778 7.03532 4.06156 7.40228 4.04281 8.04052C4.02406 8.67877 4.85726 9.09536 6.52366 9.92854L10.2112 11.7723C11.089 12.2112 11.5279 12.4306 12 12.4306C12.4721 12.4306 12.911 12.2112 13.7888 11.7723Z" stroke="#FDFFFD" stroke-width="1.5"/>
</svg>
