<svg width="36" height="36" viewBox="0 0 36 36" fill="none" xmlns="http://www.w3.org/2000/svg">
<path d="M9 12L10.8023 28.2209C10.8963 29.0671 10.9434 29.4903 11.2281 29.7451C11.5129 30 11.9386 30 12.7901 30H23.2099C24.0614 30 24.4871 30 24.7719 29.7451C25.0566 29.4903 25.1037 29.0671 25.1977 28.2209L27 12" stroke="#FDFFFD" stroke-width="1.5" stroke-linecap="round" stroke-linejoin="round"/>
<path d="M14 8V6C14 5.05719 14 4.58579 14.2929 4.29289C14.5858 4 15.0572 4 16 4H20C20.9428 4 21.4142 4 21.7071 4.29289C22 4.58579 22 5.05719 22 6V8M28 8H8" stroke="#FDFFFD" stroke-width="1.5" stroke-linecap="round" stroke-linejoin="round"/>
</svg>
