<svg width="24" height="24" viewBox="0 0 24 24" fill="none" xmlns="http://www.w3.org/2000/svg">
<path d="M17.3333 14.6667C18.8061 14.6667 20 13.4728 20 12C20 10.5272 18.8061 9.33333 17.3333 9.33333M17.3333 9.33333C18.4 6.28571 15.7333 4 12.8 4C9.86667 4 7.6 6.28571 8 8M17.3333 9.33333C16.5369 9.33333 15.822 9.6825 15.3333 10.2361M10.3893 10C9.87493 8.82273 8.70021 8 7.33333 8C5.49239 8 4 9.49238 4 11.3333C4 12.8083 4.958 14.0595 6.28571 14.4987" stroke="#FDFFFD" stroke-width="1.5" stroke-linecap="round"/>
<path d="M12 21.3333L12 14.6666M12 14.6666L9.33335 17.3333M12 14.6666L14.6667 17.3333" stroke="#FDFFFD" stroke-width="1.5" stroke-linecap="round" stroke-linejoin="round"/>
</svg>
